<svg xmlns="http://www.w3.org/2000/svg" viewBox="0 0 29.11 28.88"><defs><style>.cls-1,.cls-2{stroke:#000;stroke-miterlimit:10;}.cls-2{stroke-width:0.5px;}</style></defs><title>add-to-card</title><g id="Слой_2" data-name="Слой 2"><g id="icon"><path class="cls-1" d="M28.54,13.25a.53.53,0,0,0-.35-.25L9.88,10.32a.5.5,0,1,0-.15,1l17.7,2.85-3,8.34h-13L6.15,8.82a.5.5,0,0,0-.47-.32H1.5c-.28,0-1-.28-1,0V10a.5.5,0,0,0,1,0V9.5H5.34l5.22,13.68a.51.51,0,0,0,.47.32H24.78c.21,0,.4-.38.47-.58l3.33-9.12A.8.8,0,0,0,28.54,13.25Z"/><path class="cls-2" d="M14.29,23.57a2.53,2.53,0,1,0,2.53,2.53A2.52,2.52,0,0,0,14.29,23.57Zm0,4.06a1.53,1.53,0,1,1,1.53-1.53A1.53,1.53,0,0,1,14.29,27.63Z"/><path class="cls-2" d="M21.52,23.57A2.53,2.53,0,1,0,24,26.1,2.53,2.53,0,0,0,21.52,23.57Zm0,4.06A1.53,1.53,0,1,1,23,26.1,1.53,1.53,0,0,1,21.52,27.63Z"/><path class="cls-1" d="M21,5.5h2.5V8a.5.5,0,0,0,1,0V5.5H28a.5.5,0,0,0,0-1H24.5V1a.5.5,0,0,0-1,0V4.5H21a.5.5,0,0,0,0,1Z"/></g></g></svg>