<svg xmlns="http://www.w3.org/2000/svg" viewBox="0 0 30.25 24.08"><defs><style>.cls-1{stroke:#000;stroke-miterlimit:10;stroke-width:0.5px;}</style></defs><title>like</title><g id="Слой_2" data-name="Слой 2"><g id="icon"><path class="cls-1" d="M22,.3a8,8,0,0,0-6.84,3.81A8.07,8.07,0,0,0,8.28.25a8.09,8.09,0,0,0-8,8.15c0,2,.76,3.31,1.91,5.26h0a.59.59,0,0,0,.1.17l12.5,9.83a.52.52,0,0,0,.37.16h0a.53.53,0,0,0,.38-.16L28,13.84a.51.51,0,0,0,.09-.16h0c1.15-2,1.92-3.26,1.92-5.29A8.07,8.07,0,0,0,22,.3Zm5.2,12.94-12,9.35L3.08,13.24,3,13.15c-1.15-1.94-1.78-3-1.78-4.75a7.1,7.1,0,0,1,7-7.15,7.05,7.05,0,0,1,6.39,4.13.5.5,0,0,0,.91,0A7,7,0,0,1,29,8.39C29,10.14,28.37,11.21,27.17,13.24Z"/></g></g></svg>