<svg xmlns="http://www.w3.org/2000/svg" viewBox="0 0 31 20"><defs><style>.cls-1,.cls-2{fill:#ff5912;stroke:#ff5912;stroke-miterlimit:10;}.cls-2{stroke-width:0.5px;}</style></defs><title>Ресурс 2</title><g id="Слой_2" data-name="Слой 2"><g id="icon"><path class="cls-1" d="M30.5,1A.5.5,0,0,0,30,.5H1A.5.5,0,0,0,.5,1V19a.5.5,0,0,0,.5.5H30a.5.5,0,0,0,.5-.5Zm-1,17.5H1.5V1.5h28Z"/><path class="cls-2" d="M3.82,16.37a.49.49,0,0,0,.43.26.59.59,0,0,0,.25-.07l8.69-5,2,1.58,0,0a.45.45,0,0,0,.54,0l0,0,2-1.58,8.69,5a.55.55,0,0,0,.25.07.49.49,0,0,0,.43-.26.5.5,0,0,0-.18-.68L18.66,10.9l8.4-6.63a.5.5,0,0,0-.62-.79L15.5,12.12,4.56,3.48a.5.5,0,0,0-.62.79l8.4,6.63L4,15.69A.5.5,0,0,0,3.82,16.37Z"/></g></g></svg>