<svg xmlns="http://www.w3.org/2000/svg" viewBox="0 0 30.5 30.5"><defs><style>.cls-1{fill:#ff5912;stroke:#ff5912;stroke-miterlimit:10;stroke-width:0.5px;}</style></defs><title>Ресурс 1</title><g id="Слой_2" data-name="Слой 2"><g id="icon"><path class="cls-1" d="M7.88,30.25H2.63A2.38,2.38,0,0,1,.25,27.88V2.63A2.39,2.39,0,0,1,2.63.25H7.88a2.38,2.38,0,0,1,2.37,2.38V27.88A2.38,2.38,0,0,1,7.88,30.25Zm-5.25-29A1.38,1.38,0,0,0,1.25,2.63V27.88a1.38,1.38,0,0,0,1.38,1.37H7.88a1.38,1.38,0,0,0,1.37-1.37V2.63A1.38,1.38,0,0,0,7.88,1.25Z"/><path class="cls-1" d="M29.75,29.25h-20a.5.5,0,0,1-.5-.5v-27a.5.5,0,0,1,.5-.5h20a.5.5,0,0,1,.5.5v27A.5.5,0,0,1,29.75,29.25Zm-19.5-1h19v-26h-19Z"/><path class="cls-1" d="M25.75,11.25h-12a.5.5,0,0,1-.5-.5v-5a.5.5,0,0,1,.5-.5h12a.5.5,0,0,1,.5.5v5A.5.5,0,0,1,25.75,11.25Zm-11.5-1h11v-4h-11Z"/><path class="cls-1" d="M17.75,24.75a.5.5,0,0,1-.5-.5v-11a.5.5,0,0,1,1,0v11A.5.5,0,0,1,17.75,24.75Z"/><path class="cls-1" d="M21.75,24.75a.5.5,0,0,1-.5-.5v-11a.5.5,0,0,1,1,0v11A.5.5,0,0,1,21.75,24.75Z"/><path class="cls-1" d="M25.25,17.25h-11a.5.5,0,0,1,0-1h11a.5.5,0,0,1,0,1Z"/><path class="cls-1" d="M25.25,21.25h-11a.5.5,0,0,1,0-1h11a.5.5,0,0,1,0,1Z"/><path class="cls-1" d="M25.75,25.25h-12a.5.5,0,0,1-.5-.5v-12a.5.5,0,0,1,.5-.5h12a.5.5,0,0,1,.5.5v12A.5.5,0,0,1,25.75,25.25Zm-11.5-1h11v-11h-11Z"/></g></g></svg>