<svg xmlns="http://www.w3.org/2000/svg" viewBox="0 0 29.33 26.5"><defs><style>.cls-1{fill:#ff5912;stroke:#ff5912;stroke-miterlimit:10;stroke-width:0.5px;}</style></defs><title>share-active</title><g id="Слой_2" data-name="Слой 2"><g id="icon"><path class="cls-1" d="M2.84,25.09a2.6,2.6,0,0,1-2.21-.87c-2-2.7,4.16-9.51,11-14.55S26.7.73,28.7,3.42a2.8,2.8,0,0,1,.07,2.73.5.5,0,0,1-.93-.35A2.07,2.07,0,0,0,27.9,4C26.72,2.44,20,4.7,12.19,10.48S.26,22,1.43,23.62c.38.5,1.29.52,2,.44a.51.51,0,0,1,.55.45.5.5,0,0,1-.45.55Z"/><path class="cls-1" d="M14.83,26.25a13,13,0,1,1,13-13A13,13,0,0,1,14.83,26.25Zm0-25a12,12,0,1,0,12,12A12,12,0,0,0,14.83,1.25Z"/><path class="cls-1" d="M27,14H3a.51.51,0,0,1-.5-.5A.5.5,0,0,1,3,13H27a.5.5,0,0,1,.5.5A.5.5,0,0,1,27,14Z"/><path class="cls-1" d="M25,21H5a.51.51,0,0,1-.5-.5A.5.5,0,0,1,5,20H25a.5.5,0,0,1,.5.5A.5.5,0,0,1,25,21Z"/><path class="cls-1" d="M24,6H5a.51.51,0,0,1-.5-.5A.5.5,0,0,1,5,5H24a.5.5,0,0,1,.5.5A.5.5,0,0,1,24,6Z"/><path class="cls-1" d="M14.83,26.18a.5.5,0,0,1-.28-.91,14.43,14.43,0,0,0,6-12,14.4,14.4,0,0,0-6-12,.51.51,0,0,1-.14-.7A.5.5,0,0,1,15.1.41a15.42,15.42,0,0,1,6.48,12.85A15.44,15.44,0,0,1,15.11,26.1.5.5,0,0,1,14.83,26.18Z"/><path class="cls-1" d="M14.83,26.18a.48.48,0,0,1-.28-.08A15.44,15.44,0,0,1,8.08,13.26,15.44,15.44,0,0,1,14.55.41a.5.5,0,0,1,.55.84,14.42,14.42,0,0,0-6,12,14.43,14.43,0,0,0,6,12,.5.5,0,0,1,.13.69A.47.47,0,0,1,14.83,26.18Z"/></g></g></svg>